HIERARCHY
ROOT Hips
{
	OFFSET	0.00	0.00	0.00
	CHANNELS 6 Xposition Yposition Zposition Zrotation Xrotation Yrotation
	JOINT Chest
	{
		OFFSET	 0.00	 5.21	 0.00
		CHANNELS 3 Zrotation Xrotation Yrotation
		JOINT Neck
		{
			OFFSET	 0.00	 18.65	 0.00
			CHANNELS 3 Zrotation Xrotation Yrotation
			JOINT Head
			{
				OFFSET	 0.00	 5.45	 0.00
				CHANNELS 3 Zrotation Xrotation Yrotation
				End Site 
				{
					OFFSET	 0.00	 3.87	 0.00
				}
			}
		}
		JOINT LeftCollar
		{
			OFFSET	 1.12	 16.23	 1.87
			CHANNELS 3 Zrotation Xrotation Yrotation
			JOINT LeftUpArm
			{
				OFFSET	 5.54	 0.00	 0.00
				CHANNELS 3 Zrotation Xrotation Yrotation
				JOINT LeftLowArm
				{
					OFFSET	 0.00	-11.96	 0.00
					CHANNELS 3 Zrotation Xrotation Yrotation
					JOINT LeftHand
					{
						OFFSET	 0.00	-9.93	 0.00
						CHANNELS 3 Zrotation Xrotation Yrotation
						End Site 
						{
							OFFSET	 0.00	-7.00	 0.00
						}
					}
				}
			}
		}
		JOINT RightCollar
		{
			OFFSET	-1.12	 16.23	 1.87
			CHANNELS 3 Zrotation Xrotation Yrotation
			JOINT RightUpArm
			{
				OFFSET	-6.07	 0.00	 0.00
				CHANNELS 3 Zrotation Xrotation Yrotation
				JOINT RightLowArm
				{
					OFFSET	 0.00	-11.82	 0.00
					CHANNELS 3 Zrotation Xrotation Yrotation
					JOINT RightHand
					{
						OFFSET	 0.00	-10.65	 0.00
						CHANNELS 3 Zrotation Xrotation Yrotation
						End Site 
						{
							OFFSET	 0.00	-7.00	 0.00
						}
					}
				}
			}
		}
	}
	JOINT LeftUpLeg
	{
		OFFSET	 3.91	 0.00	 0.00
		CHANNELS 3 Zrotation Xrotation Yrotation
		JOINT LeftLowLeg
		{
			OFFSET	 0.00	-18.34	 0.00
			CHANNELS 3 Zrotation Xrotation Yrotation
			JOINT LeftFoot
			{
				OFFSET	 0.00	-17.37	 0.00
				CHANNELS 3 Zrotation Xrotation Yrotation
				End Site 
				{
					OFFSET	 0.00	-3.46	 0.00
				}
			}
		}
	}
	JOINT RightUpLeg
	{
		OFFSET	-3.91	 0.00	 0.00
		CHANNELS 3 Zrotation Xrotation Yrotation
		JOINT RightLowLeg
		{
			OFFSET	 0.00	-17.63	 0.00
			CHANNELS 3 Zrotation Xrotation Yrotation
			JOINT RightFoot
			{
				OFFSET	 0.00	-17.14	 0.00
				CHANNELS 3 Zrotation Xrotation Yrotation
				End Site 
				{
					OFFSET	 0.00	-3.75	 0.00
				}
			}
		}
	}
}
MOTION
Frames:    10
Frame Time: 0.033333
 8.03	 35.01	 88.36	-3.41	 14.78	-164.35	 13.09	 40.30	-24.60	 7.88	 43.80	 0.00	-3.61	-41.45	 5.82	 10.08	 0.00	 10.21	 97.95	-23.53	-2.14	-101.86	-80.77	-98.91	 0.69	 0.03	 0.00	-14.04	 0.00	-10.50	-85.52	-13.72	-102.93	 61.91	-61.18	 65.18	-1.57	 0.69	 0.02	 15.00	 22.78	-5.92	 14.93	 49.99	 6.60	 0.00	-1.14	 0.00	-16.58	-10.51	-3.11	 15.38	 52.66	-21.80	 0.00	-23.95	 0.00	
 7.81	 35.10	 86.47	-3.78	 12.94	-166.97	 12.64	 42.57	-22.34	 7.67	 43.61	 0.00	-4.23	-41.41	 4.89	 19.10	 0.00	 4.16	 93.12	-9.69	-9.43	 132.67	-81.86	 136.80	 0.70	 0.37	 0.00	-8.62	 0.00	-21.82	-87.31	-27.57	-100.09	 56.17	-61.56	 58.72	-1.63	 0.95	 0.03	 13.16	 15.44	-3.56	 7.97	 59.29	 4.97	 0.00	 1.64	 0.00	-17.18	-10.02	-3.08	 13.56	 53.38	-18.07	 0.00	-25.93	 0.00	
 7.59	 35.26	 84.62	-4.00	 11.45	-169.75	 11.84	 44.36	-16.10	 7.12	 43.06	 0.00	-5.32	-41.27	 3.22	 20.27	 0.00	 8.25	 98.16	-14.18	-8.66	 103.81	-72.18	 107.56	 0.71	 0.41	-0.01	-5.29	 0.00	-30.36	-88.01	-32.98	-98.11	 55.29	-56.61	 57.80	-1.65	 1.27	 0.04	 11.91	 7.67	-1.61	-4.90	 66.53	 14.08	 0.00	 2.20	 0.00	-17.66	-9.27	-2.93	 11.98	 54.09	-14.66	 0.00	-28.15	 0.00	
 7.37	 35.51	 82.80	-4.11	 10.50	-172.61	 10.34	 45.75	-8.04	 6.35	 42.20	 0.00	-6.75	-41.04	 1.04	 23.59	 0.00	 6.10	 97.71	-13.32	-10.34	 97.42	-58.20	 100.39	 0.72	 0.55	-0.01	-5.26	 0.00	-34.62	-86.47	-31.42	-98.44	 59.44	-44.89	 63.69	-1.64	 1.60	 0.05	 11.43	-0.10	 0.02	-23.86	 69.38	 34.16	 0.00	 0.01	 0.00	-18.07	-7.73	-2.51	 10.68	 53.80	-11.82	 0.00	-29.94	 0.00	
 7.15	 35.84	 80.97	-4.14	 9.48	-175.33	 8.34	 45.73	-3.10	 5.49	 41.07	 0.00	-8.41	-40.71	-1.51	 27.83	 0.00	 1.66	 93.00	-8.95	-15.03	 95.49	-43.77	 97.63	 0.73	 0.69	-0.01	-9.61	 0.00	-31.03	-82.45	-24.75	-104.90	 63.91	-23.77	 73.99	-1.64	 1.94	 0.06	 11.78	-8.09	 1.68	-37.26	 67.51	 50.72	 0.00	-4.44	 0.00	-18.57	-5.76	-1.93	 10.01	 52.02	-9.88	 0.00	-30.76	 0.00	
 6.94	 36.20	 79.10	-4.12	 8.28	-177.72	 5.72	 43.98	-3.73	 4.65	 39.69	 0.00	-9.72	-40.46	-3.53	 28.64	 0.00	-3.02	 92.26	-0.78	-17.10	 94.68	-37.28	 96.79	 0.73	 0.77	-0.01	-15.30	 0.00	-15.11	-79.50	-12.00	-112.98	 63.75	-1.32	 83.33	-1.64	 2.28	 0.07	 12.80	-15.79	 3.54	-37.81	 62.50	 53.87	 0.00	-9.05	 0.00	-19.10	-3.40	-1.18	 9.95	 49.30	-8.62	 0.00	-31.20	 0.00	
 6.76	 36.54	 77.15	-3.96	 7.33	-179.81	 2.41	 42.26	-6.95	 3.96	 38.11	 0.00	-10.42	-40.34	-4.59	 24.30	 0.00	 1.99	 99.18	-3.26	-10.86	 90.42	-42.05	 93.97	 0.73	 0.57	-0.01	-17.32	 0.00	 3.45	-81.09	 0.03	-113.78	 62.96	 12.60	 89.13	-1.63	 2.47	 0.07	 14.19	-22.06	 5.42	-30.26	 54.52	 48.39	 0.00	-12.88	 0.00	-19.44	-0.33	-0.12	 10.08	 46.10	-7.95	 0.00	-31.60	 0.00	
 6.59	 36.78	 75.03	-3.39	 6.67	 178.26	-1.23	 41.97	-8.80	 3.54	 36.36	 0.00	-10.56	-40.33	-4.81	 21.28	 0.00	 8.81	 103.91	-6.69	-3.22	 90.22	-46.58	 93.31	 0.73	 0.56	-0.01	-17.23	 0.00	 13.89	-83.98	 5.58	-104.01	 66.24	 15.81	 89.85	-1.60	 2.37	 0.07	 15.75	-26.01	 7.05	-22.15	 44.29	 42.39	 0.00	-16.16	 0.00	-19.31	 3.42	 1.20	 10.14	 42.45	-8.17	 0.00	-31.56	 0.00	
 6.44	 36.85	 72.71	-2.13	 6.28	 176.43	-5.13	 42.36	-7.70	 3.50	 34.50	 0.00	-10.37	-40.41	-4.50	 23.71	 0.00	 7.64	 100.32	-1.03	 0.95	 99.75	-48.04	 99.80	 0.71	 1.00	-0.01	-14.97	 0.00	 17.58	-87.45	 8.21	-81.66	 72.94	 4.50	 86.11	-1.53	 1.99	 0.05	 17.42	-27.59	 8.27	-16.16	 34.34	 38.22	 0.00	-16.90	 0.00	-18.52	 7.50	 2.50	 9.95	 39.00	-9.21	 0.00	-30.76	 0.00	
 6.30	 36.68	 70.18	-0.03	 6.37	 174.71	-8.87	 43.08	-2.93	 3.91	 32.54	 0.00	-10.05	-40.50	-4.01	 27.31	 0.00	 1.29	 94.54	 7.40	 9.82	 114.70	-50.77	 111.63	 0.68	 1.56	-0.02	-12.27	 0.00	 12.81	-89.17	 7.29	-50.07	 78.56	-20.20	 82.13	-1.47	 1.49	 0.04	 19.08	-27.09	 8.95	-11.84	 26.73	 35.00	 0.00	-14.29	 0.00	-17.00	 11.51	 3.49	 9.10	 37.30	-10.30	 0.00	-29.03	 0.00	
